<svg xmlns="http://www.w3.org/2000/svg" width="50" height="30"><g fill="none"><path fill="#FFF" d="M0 0h50v30H0z"/><path fill="#231F20" d="M17.51 24.748v-1.24a.736.736 0 0 0-.777-.785.764.764 0 0 0-.694.351.725.725 0 0 0-.653-.35.653.653 0 0 0-.578.293v-.244h-.43v1.975h.434V23.66a.463.463 0 0 1 .483-.525c.286 0 .43.186.43.521v1.1h.434V23.66a.465.465 0 0 1 .484-.525c.293 0 .433.186.433.521v1.1l.434-.01v.002zm6.42-1.975h-.707v-.6h-.434v.6h-.392v.392h.4v.91c0 .458.178.73.686.73.19.001.377-.052.538-.152l-.124-.368a.793.793 0 0 1-.38.112c-.207 0-.286-.133-.286-.33v-.902h.703l-.004-.392zm3.665-.05a.583.583 0 0 0-.52.29v-.24h-.426v1.975h.43V23.64c0-.326.14-.508.413-.508a.7.7 0 0 1 .268.05l.133-.413a.92.92 0 0 0-.306-.054l.008.008zm-5.541.207a1.477 1.477 0 0 0-.806-.207c-.5 0-.827.24-.827.632 0 .323.24.521.682.583l.207.029c.235.033.347.095.347.207 0 .152-.157.24-.45.24a1.052 1.052 0 0 1-.657-.207l-.207.334c.25.175.55.265.855.257.57 0 .901-.27.901-.645 0-.376-.26-.529-.69-.591l-.207-.029c-.185-.025-.334-.062-.334-.194s.14-.232.376-.232c.218.003.43.061.62.17l.19-.347zm11.51-.207a.583.583 0 0 0-.52.29v-.24h-.426v1.975h.43V23.64c0-.326.14-.508.413-.508a.7.7 0 0 1 .268.05l.133-.413a.92.92 0 0 0-.306-.054l.008.008zm-5.537 1.033a.998.998 0 0 0 1.054 1.033c.258.013.511-.07.71-.235l-.206-.347a.868.868 0 0 1-.517.177.634.634 0 0 1 0-1.264.868.868 0 0 1 .517.178l.206-.348a1.033 1.033 0 0 0-.71-.235.998.998 0 0 0-1.054 1.033v.008zm4.025 0v-.983h-.43v.24a.75.75 0 0 0-.62-.29 1.033 1.033 0 0 0 0 2.066.75.75 0 0 0 .62-.289v.24h.43v-.984zm-1.6 0a.598.598 0 1 1 1.193.07.598.598 0 0 1-1.193-.07zm-5.185-1.033a1.033 1.033 0 0 0 .028 2.066 1.2 1.2 0 0 0 .82-.268l-.206-.319a.94.94 0 0 1-.574.207.548.548 0 0 1-.591-.483h1.467v-.166c0-.62-.385-1.033-.938-1.033l-.006-.004zm0 .384a.49.49 0 0 1 .5.48h-1.034a.508.508 0 0 1 .525-.48h.009zm10.766.653v-1.78h-.413v1.032a.75.75 0 0 0-.62-.289 1.033 1.033 0 0 0 0 2.066.75.75 0 0 0 .62-.289v.24h.413v-.98zm.717.7c.053 0 .104.02.143.057a.192.192 0 0 1-.064.318.207.207 0 0 1-.265-.104.194.194 0 0 1 .043-.214.207.207 0 0 1 .15-.056h-.007v-.001zm0 .35c.04 0 .08-.017.107-.046a.153.153 0 0 0 0-.206.153.153 0 0 0-.107-.046.155.155 0 0 0-.11.046.153.153 0 0 0 0 .206.153.153 0 0 0 .116.046h-.006zm.012-.246c.02 0 .039.005.054.017a.05.05 0 0 1 .019.043.05.05 0 0 1-.015.037.072.072 0 0 1-.043.019l.06.068h-.048l-.056-.068h-.018v.068h-.04v-.182l.087-.002zm-2.318-.804a.597.597 0 1 1 1.192.07.597.597 0 0 1-1.192-.07zm-14.51 0v-.987h-.43v.24a.75.75 0 0 0-.62-.29 1.033 1.033 0 0 0 0 2.066.75.75 0 0 0 .62-.289v.24h.43v-.98zm-1.6 0a.597.597 0 1 1 .6.633.593.593 0 0 1-.603-.633h.004-.001z"/><path fill="#FF5F00" d="M21.912 7.722h6.508v11.696h-6.508z"/><path fill="#EB001B" d="M22.325 13.571a7.426 7.426 0 0 1 2.841-5.85 7.438 7.438 0 1 0 0 11.697 7.426 7.426 0 0 1-2.84-5.847h-.001z"/><path fill="#F79E1B" d="M37.201 13.571a7.438 7.438 0 0 1-12.035 5.847 7.438 7.438 0 0 0 0-11.696 7.438 7.438 0 0 1 12.035 5.847v.002zm-.622 5.311v-.823h.155v-.17h-.392v.17h.168v.823h.07-.001zm.763 0v-.993h-.12l-.138.71-.138-.71h-.106v.993h.086v-.745l.129.646h.089l.128-.646v.752l.07-.007z"/></g></svg>
